<svg width="270" height="365" viewBox="0 0 270 365" fill="none" xmlns="http://www.w3.org/2000/svg">
<rect width="270" height="365" fill="white"/>
<path d="M119.12 308.452V303.196L119.36 302.812V298.168H120.056V302.968L119.828 303.472V308.452H119.12ZM121.736 300.508C121.44 300.356 121.116 300.224 120.764 300.112C120.412 300 120.068 299.944 119.732 299.944C119.268 299.944 118.896 300.052 118.616 300.268C118.344 300.484 118.208 300.772 118.208 301.132C118.208 301.404 118.296 301.636 118.472 301.828C118.648 302.012 118.88 302.172 119.168 302.308C119.456 302.444 119.756 302.572 120.068 302.692C120.34 302.796 120.608 302.912 120.872 303.04C121.136 303.168 121.372 303.328 121.58 303.52C121.796 303.712 121.964 303.948 122.084 304.228C122.212 304.508 122.276 304.856 122.276 305.272C122.276 305.728 122.16 306.144 121.928 306.52C121.704 306.896 121.38 307.192 120.956 307.408C120.532 307.624 120.028 307.732 119.444 307.732C119.06 307.732 118.692 307.688 118.34 307.6C117.996 307.512 117.676 307.4 117.38 307.264C117.084 307.12 116.82 306.972 116.588 306.82L117.104 305.908C117.296 306.044 117.516 306.176 117.764 306.304C118.012 306.424 118.272 306.524 118.544 306.604C118.816 306.676 119.08 306.712 119.336 306.712C119.608 306.712 119.876 306.664 120.14 306.568C120.412 306.464 120.636 306.308 120.812 306.1C120.988 305.892 121.076 305.616 121.076 305.272C121.076 304.976 120.996 304.732 120.836 304.54C120.684 304.34 120.48 304.172 120.224 304.036C119.968 303.892 119.696 303.764 119.408 303.652C119.136 303.548 118.86 303.436 118.58 303.316C118.3 303.188 118.04 303.036 117.8 302.86C117.56 302.676 117.368 302.452 117.224 302.188C117.08 301.924 117.008 301.604 117.008 301.228C117.008 300.772 117.116 300.376 117.332 300.04C117.556 299.696 117.86 299.428 118.244 299.236C118.628 299.036 119.068 298.928 119.564 298.912C120.124 298.912 120.616 298.98 121.04 299.116C121.472 299.252 121.852 299.42 122.18 299.62L121.736 300.508ZM128.173 299.74L126.061 303.136L125.365 302.812C125.469 302.756 125.585 302.716 125.713 302.692C125.841 302.668 125.969 302.656 126.097 302.656C126.393 302.64 126.681 302.672 126.961 302.752C127.241 302.832 127.493 302.964 127.717 303.148C127.941 303.332 128.117 303.576 128.245 303.88C128.381 304.184 128.449 304.56 128.449 305.008C128.449 305.568 128.321 306.052 128.065 306.46C127.809 306.868 127.469 307.184 127.045 307.408C126.629 307.624 126.165 307.732 125.653 307.732C125.269 307.732 124.885 307.656 124.501 307.504C124.125 307.344 123.813 307.136 123.565 306.88L124.153 305.92C124.305 306.096 124.513 306.256 124.777 306.4C125.049 306.544 125.329 306.616 125.617 306.616C125.921 306.616 126.193 306.548 126.433 306.412C126.681 306.276 126.877 306.084 127.021 305.836C127.173 305.58 127.249 305.284 127.249 304.948C127.249 304.484 127.113 304.12 126.841 303.856C126.577 303.592 126.213 303.46 125.749 303.46C125.517 303.46 125.321 303.48 125.161 303.52C125.001 303.552 124.857 303.592 124.729 303.64L124.693 303.592L126.553 300.7L126.913 300.856H124.021V299.74H128.173ZM129.825 307.636C130.337 307.14 130.825 306.652 131.289 306.172C131.753 305.692 132.169 305.228 132.537 304.78C132.913 304.332 133.209 303.9 133.425 303.484C133.641 303.06 133.749 302.652 133.749 302.26C133.749 301.996 133.705 301.772 133.617 301.588C133.529 301.396 133.413 301.24 133.269 301.12C133.133 301 132.977 300.912 132.801 300.856C132.625 300.792 132.445 300.76 132.261 300.76C131.997 300.76 131.773 300.804 131.589 300.892C131.405 300.972 131.253 301.08 131.133 301.216C131.021 301.352 130.937 301.496 130.881 301.648C130.833 301.8 130.809 301.952 130.809 302.104C130.809 302.368 130.849 302.608 130.929 302.824C131.009 303.032 131.125 303.216 131.277 303.376L130.557 304.012C130.373 303.892 130.213 303.724 130.077 303.508C129.949 303.292 129.849 303.06 129.777 302.812C129.713 302.556 129.681 302.328 129.681 302.128C129.681 301.696 129.785 301.292 129.993 300.916C130.209 300.532 130.521 300.224 130.929 299.992C131.345 299.76 131.849 299.644 132.441 299.644C132.945 299.644 133.385 299.76 133.761 299.992C134.137 300.224 134.429 300.532 134.637 300.916C134.845 301.292 134.949 301.708 134.949 302.164C134.949 302.564 134.869 302.956 134.709 303.34C134.549 303.724 134.333 304.104 134.061 304.48C133.797 304.856 133.501 305.228 133.173 305.596C132.853 305.956 132.533 306.32 132.213 306.688L131.709 306.52H135.213V307.636H129.825ZM136.256 307C136.256 306.824 136.32 306.676 136.448 306.556C136.584 306.428 136.732 306.364 136.892 306.364C137.036 306.364 137.172 306.428 137.3 306.556C137.436 306.676 137.504 306.824 137.504 307C137.504 307.192 137.436 307.348 137.3 307.468C137.172 307.58 137.036 307.636 136.892 307.636C136.732 307.636 136.584 307.58 136.448 307.468C136.32 307.348 136.256 307.192 136.256 307ZM141.728 307.672C141.24 307.672 140.792 307.58 140.384 307.396C139.976 307.212 139.624 306.948 139.328 306.604C139.04 306.252 138.816 305.828 138.656 305.332C138.496 304.836 138.416 304.28 138.416 303.664C138.416 302.992 138.492 302.408 138.644 301.912C138.796 301.408 139.016 300.988 139.304 300.652C139.6 300.316 139.952 300.068 140.36 299.908C140.768 299.74 141.224 299.656 141.728 299.656C142.216 299.656 142.66 299.748 143.06 299.932C143.468 300.116 143.816 300.384 144.104 300.736C144.4 301.08 144.628 301.5 144.788 301.996C144.956 302.484 145.04 303.04 145.04 303.664C145.04 304.296 144.956 304.86 144.788 305.356C144.628 305.852 144.4 306.272 144.104 306.616C143.816 306.96 143.468 307.224 143.06 307.408C142.66 307.584 142.216 307.672 141.728 307.672ZM141.716 306.556C142.18 306.556 142.568 306.436 142.88 306.196C143.2 305.948 143.44 305.604 143.6 305.164C143.76 304.724 143.84 304.216 143.84 303.64C143.84 303.064 143.76 302.564 143.6 302.14C143.44 301.708 143.2 301.372 142.88 301.132C142.568 300.892 142.18 300.772 141.716 300.772C141.252 300.772 140.864 300.896 140.552 301.144C140.24 301.384 140.004 301.72 139.844 302.152C139.692 302.584 139.616 303.088 139.616 303.664C139.616 304.232 139.692 304.736 139.844 305.176C140.004 305.608 140.24 305.948 140.552 306.196C140.864 306.436 141.252 306.556 141.716 306.556ZM149.324 307.672C148.836 307.672 148.388 307.58 147.98 307.396C147.572 307.212 147.22 306.948 146.924 306.604C146.636 306.252 146.412 305.828 146.252 305.332C146.092 304.836 146.012 304.28 146.012 303.664C146.012 302.992 146.088 302.408 146.24 301.912C146.392 301.408 146.612 300.988 146.9 300.652C147.196 300.316 147.548 300.068 147.956 299.908C148.364 299.74 148.82 299.656 149.324 299.656C149.812 299.656 150.256 299.748 150.656 299.932C151.064 300.116 151.412 300.384 151.7 300.736C151.996 301.08 152.224 301.5 152.384 301.996C152.552 302.484 152.636 303.04 152.636 303.664C152.636 304.296 152.552 304.86 152.384 305.356C152.224 305.852 151.996 306.272 151.7 306.616C151.412 306.96 151.064 307.224 150.656 307.408C150.256 307.584 149.812 307.672 149.324 307.672ZM149.312 306.556C149.776 306.556 150.164 306.436 150.476 306.196C150.796 305.948 151.036 305.604 151.196 305.164C151.356 304.724 151.436 304.216 151.436 303.64C151.436 303.064 151.356 302.564 151.196 302.14C151.036 301.708 150.796 301.372 150.476 301.132C150.164 300.892 149.776 300.772 149.312 300.772C148.848 300.772 148.46 300.896 148.148 301.144C147.836 301.384 147.6 301.72 147.44 302.152C147.288 302.584 147.212 303.088 147.212 303.664C147.212 304.232 147.288 304.736 147.44 305.176C147.6 305.608 147.836 305.948 148.148 306.196C148.46 306.436 148.848 306.556 149.312 306.556Z" fill="#232A69"/>
<path d="M124.224 328.229C124.224 327.421 124.32 326.665 124.512 325.961C124.704 325.257 124.952 324.629 125.256 324.077C125.568 323.525 125.892 323.069 126.228 322.709L127.104 323.201C126.792 323.561 126.504 323.989 126.24 324.485C125.984 324.981 125.776 325.545 125.616 326.177C125.464 326.809 125.388 327.497 125.388 328.241C125.388 328.985 125.464 329.673 125.616 330.305C125.776 330.929 125.984 331.485 126.24 331.973C126.504 332.469 126.792 332.897 127.104 333.257L126.228 333.761C125.892 333.401 125.568 332.941 125.256 332.381C124.952 331.829 124.704 331.205 124.512 330.509C124.32 329.805 124.224 329.045 124.224 328.229ZM128.116 329.861V329.849L132.928 323.777H132.94V328.973H133.96V329.861H132.94V331.769H131.776V329.861H128.116ZM131.848 326.405L129.82 329.033L129.64 328.973H131.776V326.189L131.848 326.405ZM135.138 331.769C135.65 331.273 136.138 330.785 136.602 330.305C137.066 329.825 137.482 329.361 137.85 328.913C138.226 328.465 138.522 328.033 138.738 327.617C138.954 327.193 139.062 326.785 139.062 326.393C139.062 326.129 139.018 325.905 138.93 325.721C138.842 325.529 138.726 325.373 138.582 325.253C138.446 325.133 138.29 325.045 138.114 324.989C137.938 324.925 137.758 324.893 137.574 324.893C137.31 324.893 137.086 324.937 136.902 325.025C136.718 325.105 136.566 325.213 136.446 325.349C136.334 325.485 136.25 325.629 136.194 325.781C136.146 325.933 136.122 326.085 136.122 326.237C136.122 326.501 136.162 326.741 136.242 326.957C136.322 327.165 136.438 327.349 136.59 327.509L135.87 328.145C135.686 328.025 135.526 327.857 135.39 327.641C135.262 327.425 135.162 327.193 135.09 326.945C135.026 326.689 134.994 326.461 134.994 326.261C134.994 325.829 135.098 325.425 135.306 325.049C135.522 324.665 135.834 324.357 136.242 324.125C136.658 323.893 137.162 323.777 137.754 323.777C138.258 323.777 138.698 323.893 139.074 324.125C139.45 324.357 139.742 324.665 139.95 325.049C140.158 325.425 140.262 325.841 140.262 326.297C140.262 326.697 140.182 327.089 140.022 327.473C139.862 327.857 139.646 328.237 139.374 328.613C139.11 328.989 138.814 329.361 138.486 329.729C138.166 330.089 137.846 330.453 137.526 330.821L137.022 330.653H140.526V331.769H135.138ZM144.917 328.241C144.917 329.049 144.817 329.805 144.617 330.509C144.425 331.213 144.177 331.841 143.873 332.393C143.577 332.945 143.257 333.401 142.913 333.761L142.037 333.257C142.349 332.905 142.633 332.481 142.889 331.985C143.153 331.489 143.361 330.929 143.513 330.305C143.673 329.673 143.753 328.985 143.753 328.241C143.753 327.497 143.673 326.809 143.513 326.177C143.361 325.545 143.153 324.981 142.889 324.485C142.633 323.989 142.349 323.565 142.037 323.213L142.913 322.709C143.257 323.069 143.577 323.529 143.873 324.089C144.177 324.641 144.425 325.269 144.617 325.973C144.817 326.669 144.917 327.425 144.917 328.241Z" fill="#151875" fill-opacity="0.1"/>
<path d="M120.12 308.452V303.196L120.36 302.812V298.168H121.056V302.968L120.828 303.472V308.452H120.12ZM122.736 300.508C122.44 300.356 122.116 300.224 121.764 300.112C121.412 300 121.068 299.944 120.732 299.944C120.268 299.944 119.896 300.052 119.616 300.268C119.344 300.484 119.208 300.772 119.208 301.132C119.208 301.404 119.296 301.636 119.472 301.828C119.648 302.012 119.88 302.172 120.168 302.308C120.456 302.444 120.756 302.572 121.068 302.692C121.34 302.796 121.608 302.912 121.872 303.04C122.136 303.168 122.372 303.328 122.58 303.52C122.796 303.712 122.964 303.948 123.084 304.228C123.212 304.508 123.276 304.856 123.276 305.272C123.276 305.728 123.16 306.144 122.928 306.52C122.704 306.896 122.38 307.192 121.956 307.408C121.532 307.624 121.028 307.732 120.444 307.732C120.06 307.732 119.692 307.688 119.34 307.6C118.996 307.512 118.676 307.4 118.38 307.264C118.084 307.12 117.82 306.972 117.588 306.82L118.104 305.908C118.296 306.044 118.516 306.176 118.764 306.304C119.012 306.424 119.272 306.524 119.544 306.604C119.816 306.676 120.08 306.712 120.336 306.712C120.608 306.712 120.876 306.664 121.14 306.568C121.412 306.464 121.636 306.308 121.812 306.1C121.988 305.892 122.076 305.616 122.076 305.272C122.076 304.976 121.996 304.732 121.836 304.54C121.684 304.34 121.48 304.172 121.224 304.036C120.968 303.892 120.696 303.764 120.408 303.652C120.136 303.548 119.86 303.436 119.58 303.316C119.3 303.188 119.04 303.036 118.8 302.86C118.56 302.676 118.368 302.452 118.224 302.188C118.08 301.924 118.008 301.604 118.008 301.228C118.008 300.772 118.116 300.376 118.332 300.04C118.556 299.696 118.86 299.428 119.244 299.236C119.628 299.036 120.068 298.928 120.564 298.912C121.124 298.912 121.616 298.98 122.04 299.116C122.472 299.252 122.852 299.42 123.18 299.62L122.736 300.508ZM126.749 307.732C126.325 307.732 125.917 307.656 125.525 307.504C125.141 307.352 124.829 307.156 124.589 306.916L125.213 306.016C125.373 306.2 125.585 306.348 125.849 306.46C126.121 306.572 126.389 306.628 126.653 306.628C126.949 306.628 127.209 306.564 127.433 306.436C127.665 306.3 127.845 306.12 127.973 305.896C128.101 305.664 128.165 305.4 128.165 305.104C128.165 304.784 128.105 304.5 127.985 304.252C127.873 304.004 127.701 303.812 127.469 303.676C127.245 303.532 126.961 303.46 126.617 303.46C126.337 303.46 126.077 303.5 125.837 303.58C125.597 303.652 125.349 303.764 125.093 303.916H125.081V299.74H128.861V300.856H126.089V302.872L125.933 302.632C126.069 302.584 126.221 302.548 126.389 302.524C126.565 302.492 126.733 302.476 126.893 302.476C127.429 302.476 127.877 302.596 128.237 302.836C128.605 303.068 128.881 303.38 129.065 303.772C129.257 304.164 129.353 304.596 129.353 305.068C129.353 305.564 129.241 306.016 129.017 306.424C128.793 306.824 128.485 307.144 128.093 307.384C127.701 307.616 127.253 307.732 126.749 307.732ZM133.378 307.732C132.85 307.732 132.37 307.608 131.938 307.36C131.514 307.104 131.174 306.744 130.918 306.28C130.67 305.808 130.546 305.252 130.546 304.612C130.546 304.092 130.646 303.6 130.846 303.136C131.054 302.664 131.33 302.224 131.674 301.816C132.018 301.4 132.406 301.016 132.838 300.664C133.278 300.304 133.726 299.976 134.182 299.68L134.95 300.52C134.302 300.84 133.758 301.204 133.318 301.612C132.878 302.012 132.538 302.42 132.298 302.836C132.058 303.252 131.914 303.644 131.866 304.012L131.578 303.976C131.794 303.528 132.078 303.184 132.43 302.944C132.782 302.704 133.226 302.584 133.762 302.584C134.17 302.584 134.554 302.692 134.914 302.908C135.274 303.124 135.566 303.42 135.79 303.796C136.022 304.172 136.138 304.604 136.138 305.092C136.138 305.628 136.006 306.096 135.742 306.496C135.486 306.888 135.146 307.192 134.722 307.408C134.306 307.624 133.858 307.732 133.378 307.732ZM133.33 306.688C133.626 306.688 133.894 306.624 134.134 306.496C134.382 306.36 134.578 306.172 134.722 305.932C134.866 305.692 134.938 305.416 134.938 305.104C134.938 304.792 134.866 304.52 134.722 304.288C134.578 304.056 134.382 303.876 134.134 303.748C133.894 303.62 133.626 303.556 133.33 303.556C133.034 303.556 132.766 303.62 132.526 303.748C132.286 303.868 132.094 304.036 131.95 304.252C131.806 304.46 131.734 304.692 131.734 304.948V305.152C131.734 305.424 131.802 305.68 131.938 305.92C132.082 306.152 132.274 306.34 132.514 306.484C132.762 306.62 133.034 306.688 133.33 306.688ZM137.037 307C137.037 306.824 137.101 306.676 137.229 306.556C137.365 306.428 137.513 306.364 137.673 306.364C137.817 306.364 137.953 306.428 138.081 306.556C138.217 306.676 138.285 306.824 138.285 307C138.285 307.192 138.217 307.348 138.081 307.468C137.953 307.58 137.817 307.636 137.673 307.636C137.513 307.636 137.365 307.58 137.229 307.468C137.101 307.348 137.037 307.192 137.037 307ZM142.389 307.672C141.901 307.672 141.453 307.58 141.045 307.396C140.637 307.212 140.285 306.948 139.989 306.604C139.701 306.252 139.477 305.828 139.317 305.332C139.157 304.836 139.077 304.28 139.077 303.664C139.077 302.992 139.153 302.408 139.305 301.912C139.457 301.408 139.677 300.988 139.965 300.652C140.261 300.316 140.613 300.068 141.021 299.908C141.429 299.74 141.885 299.656 142.389 299.656C142.877 299.656 143.321 299.748 143.721 299.932C144.129 300.116 144.477 300.384 144.765 300.736C145.061 301.08 145.289 301.5 145.449 301.996C145.617 302.484 145.701 303.04 145.701 303.664C145.701 304.296 145.617 304.86 145.449 305.356C145.289 305.852 145.061 306.272 144.765 306.616C144.477 306.96 144.129 307.224 143.721 307.408C143.321 307.584 142.877 307.672 142.389 307.672ZM142.377 306.556C142.841 306.556 143.229 306.436 143.541 306.196C143.861 305.948 144.101 305.604 144.261 305.164C144.421 304.724 144.501 304.216 144.501 303.64C144.501 303.064 144.421 302.564 144.261 302.14C144.101 301.708 143.861 301.372 143.541 301.132C143.229 300.892 142.841 300.772 142.377 300.772C141.913 300.772 141.525 300.896 141.213 301.144C140.901 301.384 140.665 301.72 140.505 302.152C140.353 302.584 140.277 303.088 140.277 303.664C140.277 304.232 140.353 304.736 140.505 305.176C140.665 305.608 140.901 305.948 141.213 306.196C141.525 306.436 141.913 306.556 142.377 306.556ZM149.865 307.672C149.377 307.672 148.929 307.58 148.521 307.396C148.113 307.212 147.761 306.948 147.465 306.604C147.177 306.252 146.953 305.828 146.793 305.332C146.633 304.836 146.553 304.28 146.553 303.664C146.553 302.992 146.629 302.408 146.781 301.912C146.933 301.408 147.153 300.988 147.441 300.652C147.737 300.316 148.089 300.068 148.497 299.908C148.905 299.74 149.361 299.656 149.865 299.656C150.353 299.656 150.797 299.748 151.197 299.932C151.605 300.116 151.953 300.384 152.241 300.736C152.537 301.08 152.765 301.5 152.925 301.996C153.093 302.484 153.177 303.04 153.177 303.664C153.177 304.296 153.093 304.86 152.925 305.356C152.765 305.852 152.537 306.272 152.241 306.616C151.953 306.96 151.605 307.224 151.197 307.408C150.797 307.584 150.353 307.672 149.865 307.672ZM149.853 306.556C150.317 306.556 150.705 306.436 151.017 306.196C151.337 305.948 151.577 305.604 151.737 305.164C151.897 304.724 151.977 304.216 151.977 303.64C151.977 303.064 151.897 302.564 151.737 302.14C151.577 301.708 151.337 301.372 151.017 301.132C150.705 300.892 150.317 300.772 149.853 300.772C149.389 300.772 149.001 300.896 148.689 301.144C148.377 301.384 148.141 301.72 147.981 302.152C147.829 302.584 147.753 303.088 147.753 303.664C147.753 304.232 147.829 304.736 147.981 305.176C148.141 305.608 148.377 305.948 148.689 306.196C149.001 306.436 149.389 306.556 149.853 306.556Z" fill="#151875" fill-opacity="0.1"/>
<path d="M117 304.912H153.597V305.512H117V304.912Z" fill="#151875" fill-opacity="0.1"/>
<path d="M65.697 271.259H67.601L70.933 280.643L70.644 280.524L73.075 274.234L73.84 276.461L70.593 284.043L65.697 271.259ZM71.596 271.259H73.245L76.849 280.507L76.509 280.439L79.688 271.259H81.439L76.611 284.026L71.596 271.259ZM81.4741 279.895C81.4741 279.192 81.6384 278.558 81.9671 277.991C82.3071 277.424 82.7717 276.977 83.3611 276.648C83.9504 276.319 84.6191 276.155 85.3671 276.155C86.1377 276.155 86.8121 276.319 87.3901 276.648C87.9681 276.977 88.4157 277.424 88.7331 277.991C89.0504 278.558 89.2091 279.192 89.2091 279.895C89.2091 280.598 89.0504 281.238 88.7331 281.816C88.4157 282.383 87.9624 282.83 87.3731 283.159C86.7951 283.488 86.1207 283.652 85.3501 283.652C84.6021 283.652 83.9334 283.499 83.3441 283.193C82.7661 282.876 82.3071 282.439 81.9671 281.884C81.6384 281.317 81.4741 280.654 81.4741 279.895ZM83.0551 279.912C83.0551 280.365 83.1571 280.779 83.3611 281.153C83.5651 281.516 83.8371 281.805 84.1771 282.02C84.5284 282.235 84.9137 282.343 85.3331 282.343C85.7751 282.343 86.1661 282.235 86.5061 282.02C86.8574 281.805 87.1294 281.516 87.3221 281.153C87.5147 280.779 87.6111 280.365 87.6111 279.912C87.6111 279.459 87.5147 279.051 87.3221 278.688C87.1294 278.314 86.8574 278.019 86.5061 277.804C86.1661 277.577 85.7751 277.464 85.3331 277.464C84.9024 277.464 84.5114 277.577 84.1601 277.804C83.8201 278.031 83.5481 278.331 83.3441 278.705C83.1514 279.068 83.0551 279.47 83.0551 279.912ZM90.9077 279.895C90.9077 279.192 91.0721 278.558 91.4007 277.991C91.7407 277.424 92.2054 276.977 92.7947 276.648C93.3841 276.319 94.0527 276.155 94.8007 276.155C95.5714 276.155 96.2457 276.319 96.8237 276.648C97.4017 276.977 97.8494 277.424 98.1667 277.991C98.4841 278.558 98.6427 279.192 98.6427 279.895C98.6427 280.598 98.4841 281.238 98.1667 281.816C97.8494 282.383 97.3961 282.83 96.8067 283.159C96.2287 283.488 95.5544 283.652 94.7837 283.652C94.0357 283.652 93.3671 283.499 92.7777 283.193C92.1997 282.876 91.7407 282.439 91.4007 281.884C91.0721 281.317 90.9077 280.654 90.9077 279.895ZM92.4887 279.912C92.4887 280.365 92.5907 280.779 92.7947 281.153C92.9987 281.516 93.2707 281.805 93.6107 282.02C93.9621 282.235 94.3474 282.343 94.7667 282.343C95.2087 282.343 95.5997 282.235 95.9397 282.02C96.2911 281.805 96.5631 281.516 96.7557 281.153C96.9484 280.779 97.0447 280.365 97.0447 279.912C97.0447 279.459 96.9484 279.051 96.7557 278.688C96.5631 278.314 96.2911 278.019 95.9397 277.804C95.5997 277.577 95.2087 277.464 94.7667 277.464C94.3361 277.464 93.9451 277.577 93.5937 277.804C93.2537 278.031 92.9817 278.331 92.7777 278.705C92.5851 279.068 92.4887 279.47 92.4887 279.912ZM103.809 283.652C103.163 283.652 102.574 283.499 102.041 283.193C101.52 282.876 101.106 282.434 100.8 281.867C100.494 281.289 100.341 280.626 100.341 279.878C100.341 279.096 100.5 278.427 100.817 277.872C101.146 277.317 101.588 276.892 102.143 276.597C102.699 276.302 103.322 276.155 104.013 276.155C104.569 276.155 105.096 276.274 105.594 276.512C106.104 276.75 106.501 277.079 106.784 277.498L106.716 278.059V270.324H108.28V283.482H106.699V281.731L106.869 282.173C106.541 282.604 106.116 282.961 105.594 283.244C105.073 283.516 104.478 283.652 103.809 283.652ZM104.302 282.309C104.722 282.309 105.096 282.235 105.424 282.088C105.753 281.929 106.025 281.714 106.24 281.442C106.456 281.17 106.609 280.847 106.699 280.473V279.147C106.609 278.807 106.444 278.512 106.206 278.263C105.98 278.002 105.702 277.798 105.373 277.651C105.056 277.492 104.699 277.413 104.302 277.413C103.872 277.413 103.475 277.521 103.112 277.736C102.761 277.94 102.478 278.223 102.262 278.586C102.047 278.949 101.939 279.368 101.939 279.844C101.939 280.309 102.047 280.728 102.262 281.102C102.478 281.465 102.767 281.759 103.129 281.986C103.492 282.201 103.883 282.309 104.302 282.309ZM117.14 283.482V270.8H117.157L123.6 279.946L122.903 279.81L129.329 270.8H129.363V283.482H127.731V274.54L127.833 275.373L123.192 281.935H123.158L118.449 275.373L118.738 274.608V283.482H117.14ZM135.598 283.652C134.941 283.652 134.34 283.51 133.796 283.227C133.264 282.944 132.839 282.53 132.521 281.986C132.215 281.431 132.062 280.756 132.062 279.963C132.062 279.181 132.227 278.507 132.555 277.94C132.884 277.362 133.32 276.92 133.864 276.614C134.42 276.308 135.026 276.155 135.683 276.155C136.341 276.155 136.896 276.308 137.349 276.614C137.803 276.909 138.148 277.26 138.386 277.668L138.284 277.94L138.437 276.444H139.899V283.482H138.318V281.646L138.488 282.054C138.443 282.167 138.341 282.315 138.182 282.496C138.035 282.666 137.831 282.842 137.57 283.023C137.321 283.204 137.032 283.357 136.703 283.482C136.375 283.595 136.006 283.652 135.598 283.652ZM136.023 282.343C136.42 282.343 136.777 282.269 137.094 282.122C137.412 281.975 137.672 281.771 137.876 281.51C138.092 281.238 138.239 280.915 138.318 280.541V279.164C138.228 278.824 138.069 278.529 137.842 278.28C137.616 278.019 137.344 277.821 137.026 277.685C136.709 277.538 136.358 277.464 135.972 277.464C135.553 277.464 135.168 277.566 134.816 277.77C134.465 277.974 134.182 278.257 133.966 278.62C133.762 278.983 133.66 279.408 133.66 279.895C133.66 280.348 133.768 280.762 133.983 281.136C134.199 281.51 134.488 281.805 134.85 282.02C135.213 282.235 135.604 282.343 136.023 282.343ZM145.661 283.652C145.015 283.652 144.426 283.499 143.893 283.193C143.372 282.876 142.958 282.434 142.652 281.867C142.346 281.289 142.193 280.626 142.193 279.878C142.193 279.096 142.352 278.427 142.669 277.872C142.998 277.317 143.44 276.892 143.995 276.597C144.551 276.302 145.174 276.155 145.865 276.155C146.421 276.155 146.948 276.274 147.446 276.512C147.956 276.75 148.353 277.079 148.636 277.498L148.568 278.059V270.324H150.132V283.482H148.551V281.731L148.721 282.173C148.393 282.604 147.968 282.961 147.446 283.244C146.925 283.516 146.33 283.652 145.661 283.652ZM146.154 282.309C146.574 282.309 146.948 282.235 147.276 282.088C147.605 281.929 147.877 281.714 148.092 281.442C148.308 281.17 148.461 280.847 148.551 280.473V279.147C148.461 278.807 148.296 278.512 148.058 278.263C147.832 278.002 147.554 277.798 147.225 277.651C146.908 277.492 146.551 277.413 146.154 277.413C145.724 277.413 145.327 277.521 144.964 277.736C144.613 277.94 144.33 278.223 144.114 278.586C143.899 278.949 143.791 279.368 143.791 279.844C143.791 280.309 143.899 280.728 144.114 281.102C144.33 281.465 144.619 281.759 144.981 281.986C145.344 282.201 145.735 282.309 146.154 282.309ZM156.316 283.652C155.512 283.652 154.82 283.493 154.242 283.176C153.664 282.847 153.217 282.405 152.899 281.85C152.593 281.283 152.44 280.637 152.44 279.912C152.44 279.221 152.616 278.592 152.967 278.025C153.319 277.458 153.789 277.005 154.378 276.665C154.968 276.325 155.625 276.155 156.35 276.155C157.28 276.155 158.05 276.427 158.662 276.971C159.274 277.515 159.688 278.263 159.903 279.215L154.106 281.255L153.732 280.32L158.492 278.586L158.152 278.807C158.016 278.433 157.79 278.11 157.472 277.838C157.155 277.555 156.741 277.413 156.231 277.413C155.801 277.413 155.415 277.521 155.075 277.736C154.735 277.94 154.469 278.223 154.276 278.586C154.084 278.949 153.987 279.362 153.987 279.827C153.987 280.314 154.089 280.745 154.293 281.119C154.497 281.482 154.775 281.771 155.126 281.986C155.489 282.19 155.897 282.292 156.35 282.292C156.656 282.292 156.951 282.235 157.234 282.122C157.529 282.009 157.801 281.861 158.05 281.68L158.781 282.853C158.43 283.091 158.033 283.284 157.591 283.431C157.161 283.578 156.736 283.652 156.316 283.652ZM171.156 271.191C172.392 271.191 173.361 271.446 174.063 271.956C174.777 272.455 175.134 273.237 175.134 274.302C175.134 274.948 174.987 275.509 174.692 275.985C174.398 276.461 173.984 276.835 173.451 277.107C172.93 277.379 172.312 277.532 171.598 277.566L171.36 276.716C172.188 276.739 172.93 276.886 173.587 277.158C174.245 277.43 174.766 277.81 175.151 278.297C175.537 278.784 175.729 279.362 175.729 280.031C175.729 280.643 175.616 281.17 175.389 281.612C175.163 282.043 174.857 282.4 174.471 282.683C174.086 282.955 173.65 283.159 173.162 283.295C172.675 283.42 172.171 283.482 171.649 283.482H167.994V271.191H171.156ZM171.496 276.58C172.176 276.58 172.669 276.393 172.975 276.019C173.281 275.634 173.434 275.169 173.434 274.625C173.434 273.979 173.236 273.509 172.839 273.214C172.443 272.919 171.91 272.772 171.241 272.772H169.643V276.58H171.496ZM171.564 281.952C172.018 281.952 172.431 281.884 172.805 281.748C173.191 281.612 173.491 281.402 173.706 281.119C173.933 280.836 174.046 280.479 174.046 280.048C174.046 279.572 173.916 279.198 173.655 278.926C173.406 278.654 173.083 278.461 172.686 278.348C172.29 278.223 171.882 278.161 171.462 278.161H169.643V281.952H171.564ZM181.206 283.652C180.549 283.652 179.948 283.51 179.404 283.227C178.871 282.944 178.446 282.53 178.129 281.986C177.823 281.431 177.67 280.756 177.67 279.963C177.67 279.181 177.834 278.507 178.163 277.94C178.492 277.362 178.928 276.92 179.472 276.614C180.027 276.308 180.634 276.155 181.291 276.155C181.948 276.155 182.504 276.308 182.957 276.614C183.41 276.909 183.756 277.26 183.994 277.668L183.892 277.94L184.045 276.444H185.507V283.482H183.926V281.646L184.096 282.054C184.051 282.167 183.949 282.315 183.79 282.496C183.643 282.666 183.439 282.842 183.178 283.023C182.929 283.204 182.64 283.357 182.311 283.482C181.982 283.595 181.614 283.652 181.206 283.652ZM181.631 282.343C182.028 282.343 182.385 282.269 182.702 282.122C183.019 281.975 183.28 281.771 183.484 281.51C183.699 281.238 183.847 280.915 183.926 280.541V279.164C183.835 278.824 183.677 278.529 183.45 278.28C183.223 278.019 182.951 277.821 182.634 277.685C182.317 277.538 181.965 277.464 181.58 277.464C181.161 277.464 180.775 277.566 180.424 277.77C180.073 277.974 179.789 278.257 179.574 278.62C179.37 278.983 179.268 279.408 179.268 279.895C179.268 280.348 179.376 280.762 179.591 281.136C179.806 281.51 180.095 281.805 180.458 282.02C180.821 282.235 181.212 282.343 181.631 282.343ZM191.796 286.967C191.275 286.967 190.816 286.905 190.419 286.78C190.022 286.667 189.66 286.502 189.331 286.287C189.014 286.072 188.708 285.828 188.413 285.556L189.331 284.485C189.705 284.836 190.085 285.108 190.47 285.301C190.855 285.494 191.286 285.59 191.762 285.59C192.295 285.59 192.742 285.499 193.105 285.318C193.479 285.148 193.762 284.904 193.955 284.587C194.148 284.281 194.244 283.924 194.244 283.516L194.261 281.612L194.397 281.918C194.193 282.405 193.825 282.819 193.292 283.159C192.759 283.488 192.113 283.652 191.354 283.652C190.708 283.652 190.113 283.488 189.569 283.159C189.036 282.83 188.606 282.388 188.277 281.833C187.96 281.266 187.801 280.632 187.801 279.929C187.801 279.192 187.971 278.546 188.311 277.991C188.651 277.424 189.099 276.977 189.654 276.648C190.209 276.319 190.816 276.155 191.473 276.155C192.096 276.155 192.663 276.285 193.173 276.546C193.694 276.795 194.074 277.118 194.312 277.515L194.227 277.804L194.397 276.444H195.842V283.533C195.842 284.168 195.678 284.746 195.349 285.267C195.02 285.788 194.556 286.202 193.955 286.508C193.354 286.814 192.635 286.967 191.796 286.967ZM189.382 279.895C189.382 280.348 189.49 280.762 189.705 281.136C189.92 281.51 190.209 281.805 190.572 282.02C190.946 282.235 191.36 282.343 191.813 282.343C192.232 282.343 192.606 282.269 192.935 282.122C193.275 281.963 193.558 281.754 193.785 281.493C194.012 281.221 194.17 280.909 194.261 280.558V279.164C194.159 278.824 193.989 278.529 193.751 278.28C193.513 278.019 193.23 277.821 192.901 277.685C192.572 277.538 192.21 277.464 191.813 277.464C191.36 277.464 190.946 277.566 190.572 277.77C190.209 277.974 189.92 278.263 189.705 278.637C189.49 279 189.382 279.419 189.382 279.895ZM200.715 283.618C200.217 283.618 199.729 283.533 199.253 283.363C198.789 283.182 198.403 282.915 198.097 282.564L198.76 281.646C199.055 281.929 199.355 282.145 199.661 282.292C199.979 282.428 200.29 282.496 200.596 282.496C200.823 282.496 201.033 282.468 201.225 282.411C201.418 282.354 201.571 282.264 201.684 282.139C201.809 282.003 201.871 281.822 201.871 281.595C201.871 281.346 201.786 281.147 201.616 281C201.458 280.853 201.248 280.734 200.987 280.643C200.738 280.552 200.472 280.467 200.188 280.388C199.61 280.195 199.168 279.929 198.862 279.589C198.556 279.249 198.403 278.835 198.403 278.348C198.403 277.974 198.494 277.628 198.675 277.311C198.868 276.982 199.146 276.716 199.508 276.512C199.882 276.308 200.341 276.206 200.885 276.206C201.373 276.206 201.809 276.268 202.194 276.393C202.58 276.506 202.942 276.699 203.282 276.971L202.653 277.957C202.449 277.742 202.206 277.583 201.922 277.481C201.639 277.379 201.384 277.322 201.157 277.311C200.965 277.3 200.778 277.328 200.596 277.396C200.426 277.464 200.285 277.56 200.171 277.685C200.058 277.81 200.001 277.957 200.001 278.127C200.001 278.365 200.081 278.558 200.239 278.705C200.398 278.852 200.602 278.971 200.851 279.062C201.112 279.141 201.367 279.226 201.616 279.317C201.968 279.419 202.279 279.555 202.551 279.725C202.823 279.895 203.039 280.105 203.197 280.354C203.367 280.603 203.452 280.915 203.452 281.289C203.452 281.708 203.35 282.099 203.146 282.462C202.954 282.813 202.653 283.097 202.245 283.312C201.849 283.516 201.339 283.618 200.715 283.618Z" fill="#151875"/>
<path d="M114.868 325.23L112.389 324.868L111.28 322.609C111.25 322.547 111.2 322.497 111.139 322.466C110.984 322.39 110.797 322.453 110.72 322.609L109.611 324.868L107.132 325.23C107.064 325.24 107.001 325.273 106.953 325.322C106.895 325.382 106.863 325.462 106.865 325.545C106.866 325.629 106.9 325.708 106.959 325.767L108.753 327.525L108.329 330.009C108.319 330.066 108.326 330.126 108.347 330.18C108.369 330.234 108.406 330.281 108.453 330.316C108.5 330.35 108.556 330.371 108.614 330.375C108.673 330.379 108.731 330.367 108.782 330.339L111 329.167L113.218 330.339C113.278 330.372 113.349 330.383 113.416 330.371C113.586 330.341 113.7 330.179 113.671 330.009L113.247 327.525L115.041 325.767C115.09 325.718 115.122 325.656 115.132 325.587C115.158 325.415 115.039 325.256 114.868 325.23Z" fill="#FFD659"/>
<path d="M126.868 325.23L124.389 324.868L123.28 322.609C123.25 322.547 123.2 322.497 123.139 322.466C122.984 322.39 122.797 322.453 122.72 322.609L121.611 324.868L119.132 325.23C119.064 325.24 119.001 325.273 118.953 325.322C118.895 325.382 118.863 325.462 118.865 325.545C118.866 325.629 118.9 325.708 118.959 325.767L120.753 327.525L120.329 330.009C120.319 330.066 120.326 330.126 120.347 330.18C120.369 330.234 120.406 330.281 120.453 330.316C120.5 330.35 120.556 330.371 120.614 330.375C120.673 330.379 120.731 330.367 120.782 330.339L123 329.167L125.218 330.339C125.278 330.372 125.349 330.383 125.416 330.371C125.586 330.341 125.7 330.179 125.671 330.009L125.247 327.525L127.041 325.767C127.09 325.718 127.122 325.656 127.132 325.587C127.158 325.415 127.039 325.256 126.868 325.23Z" fill="#FFD659"/>
<path d="M138.868 325.23L136.389 324.868L135.28 322.609C135.25 322.547 135.2 322.497 135.139 322.466C134.984 322.39 134.797 322.453 134.72 322.609L133.611 324.868L131.132 325.23C131.064 325.24 131.001 325.273 130.953 325.322C130.895 325.382 130.863 325.462 130.865 325.545C130.866 325.629 130.9 325.708 130.959 325.767L132.753 327.525L132.329 330.009C132.319 330.066 132.326 330.126 132.347 330.18C132.369 330.234 132.406 330.281 132.453 330.316C132.5 330.35 132.556 330.371 132.614 330.375C132.673 330.379 132.731 330.367 132.782 330.339L135 329.167L137.218 330.339C137.278 330.372 137.349 330.383 137.416 330.371C137.586 330.341 137.7 330.179 137.671 330.009L137.247 327.525L139.041 325.767C139.09 325.718 139.122 325.656 139.132 325.587C139.158 325.415 139.039 325.256 138.868 325.23Z" fill="#FFD659"/>
<path d="M150.868 325.23L148.389 324.868L147.28 322.609C147.25 322.547 147.2 322.497 147.139 322.466C146.984 322.39 146.797 322.453 146.72 322.609L145.611 324.868L143.132 325.23C143.064 325.24 143.001 325.273 142.953 325.322C142.895 325.382 142.863 325.462 142.865 325.545C142.866 325.629 142.9 325.708 142.959 325.767L144.753 327.525L144.329 330.009C144.319 330.066 144.326 330.126 144.347 330.18C144.369 330.234 144.406 330.281 144.453 330.316C144.5 330.35 144.556 330.371 144.614 330.375C144.673 330.379 144.731 330.367 144.782 330.339L147 329.167L149.218 330.339C149.278 330.372 149.349 330.383 149.416 330.371C149.586 330.341 149.7 330.179 149.671 330.009L149.247 327.525L151.041 325.767C151.09 325.718 151.122 325.656 151.132 325.587C151.158 325.415 151.039 325.256 150.868 325.23Z" fill="#FFD659"/>
<path d="M162.868 325.23L160.389 324.868L159.28 322.609C159.25 322.547 159.2 322.497 159.139 322.466C158.984 322.39 158.797 322.453 158.72 322.609L157.611 324.868L155.132 325.23C155.064 325.24 155.001 325.273 154.953 325.322C154.895 325.382 154.863 325.462 154.865 325.545C154.866 325.629 154.9 325.708 154.959 325.767L156.753 327.525L156.329 330.009C156.319 330.066 156.326 330.126 156.347 330.18C156.369 330.234 156.406 330.281 156.453 330.316C156.5 330.35 156.556 330.371 156.614 330.375C156.673 330.379 156.731 330.367 156.782 330.339L159 329.167L161.218 330.339C161.278 330.372 161.349 330.383 161.416 330.371C161.586 330.341 161.7 330.179 161.671 330.009L161.247 327.525L163.041 325.767C163.09 325.718 163.122 325.656 163.132 325.587C163.158 325.415 163.039 325.256 162.868 325.23Z" fill="#B2B2B2"/>
<rect width="240" height="240" transform="translate(15 15)" fill="#5C5C5C"/>
</svg>
