<svg width="45" height="45" viewBox="0 0 45 45" fill="none" xmlns="http://www.w3.org/2000/svg">
<circle cx="22.5" cy="22.5" r="22.5" fill="#1BE982"/>
<path d="M13 24H22V25.5H13V24Z" fill="white"/>
<path d="M11.5 20.25H19V21.75H11.5V20.25Z" fill="white"/>
<path d="M32.4393 24.4545L30.1893 19.2045C30.1315 19.0696 30.0354 18.9545 29.9129 18.8737C29.7903 18.793 29.6468 18.7499 29.5 18.75H27.25V17.25C27.25 17.0511 27.171 16.8603 27.0303 16.7197C26.8897 16.579 26.6989 16.5 26.5 16.5H14.5V18H25.75V27.417C25.4083 27.6154 25.1092 27.8796 24.87 28.1942C24.6308 28.5088 24.4563 28.8676 24.3565 29.25H19.6435C19.461 28.543 19.0268 27.9269 18.4225 27.517C17.8182 27.1072 17.0851 26.9319 16.3608 27.0239C15.6364 27.1159 14.9705 27.4689 14.4878 28.0168C14.0051 28.5647 13.7388 29.2698 13.7388 30C13.7388 30.7302 14.0051 31.4353 14.4878 31.9832C14.9705 32.5311 15.6364 32.8841 16.3608 32.9761C17.0851 33.0681 17.8182 32.8928 18.4225 32.483C19.0268 32.0731 19.461 31.457 19.6435 30.75H24.3565C24.5197 31.3937 24.8928 31.9646 25.4168 32.3724C25.9409 32.7802 26.586 33.0016 27.25 33.0016C27.914 33.0016 28.5591 32.7802 29.0832 32.3724C29.6072 31.9646 29.9804 31.3937 30.1435 30.75H31.75C31.9489 30.75 32.1397 30.671 32.2803 30.5303C32.421 30.3897 32.5 30.1989 32.5 30V24.75C32.5 24.6484 32.4794 24.5479 32.4393 24.4545ZM16.75 31.5C16.4533 31.5 16.1633 31.412 15.9167 31.2472C15.67 31.0824 15.4777 30.8481 15.3642 30.574C15.2507 30.2999 15.221 29.9983 15.2788 29.7074C15.3367 29.4164 15.4796 29.1491 15.6893 28.9393C15.8991 28.7296 16.1664 28.5867 16.4574 28.5288C16.7483 28.4709 17.0499 28.5006 17.324 28.6142C17.5981 28.7277 17.8324 28.92 17.9972 29.1666C18.162 29.4133 18.25 29.7033 18.25 30C18.2496 30.3977 18.0914 30.779 17.8102 31.0602C17.529 31.3414 17.1477 31.4996 16.75 31.5ZM27.25 20.25H29.005L30.613 24H27.25V20.25ZM27.25 31.5C26.9533 31.5 26.6633 31.412 26.4167 31.2472C26.17 31.0824 25.9777 30.8481 25.8642 30.574C25.7507 30.2999 25.721 29.9983 25.7788 29.7074C25.8367 29.4164 25.9796 29.1491 26.1893 28.9393C26.3991 28.7296 26.6664 28.5867 26.9574 28.5288C27.2483 28.4709 27.5499 28.5006 27.824 28.6142C28.0981 28.7277 28.3324 28.92 28.4972 29.1666C28.662 29.4133 28.75 29.7033 28.75 30C28.7496 30.3977 28.5914 30.779 28.3102 31.0602C28.029 31.3414 27.6477 31.4996 27.25 31.5ZM31 29.25H30.1435C29.9783 28.6076 29.6046 28.0381 29.0809 27.6309C28.5573 27.2238 27.9133 27.0018 27.25 27V25.5H31V29.25Z" fill="white"/>
</svg>
