<svg width="45" height="45" viewBox="0 0 45 45" fill="none" xmlns="http://www.w3.org/2000/svg">
<circle cx="22.5" cy="22.5" r="22.5" fill="#FFB265"/>
<path d="M21.9028 17.981C21.3095 17.981 20.7295 18.1569 20.2361 18.4865C19.7428 18.8162 19.3583 19.2847 19.1312 19.8329C18.9041 20.3811 18.8447 20.9843 18.9605 21.5662C19.0762 22.1482 19.362 22.6827 19.7815 23.1023C20.2011 23.5218 20.7356 23.8076 21.3176 23.9233C21.8995 24.0391 22.5027 23.9797 23.0509 23.7526C23.5991 23.5255 24.0676 23.141 24.3972 22.6477C24.7269 22.1543 24.9028 21.5743 24.9028 20.981C24.9019 20.1856 24.5856 19.423 24.0232 18.8606C23.4607 18.2982 22.6982 17.9819 21.9028 17.981ZM21.9028 22.481C21.6062 22.481 21.3162 22.393 21.0695 22.2282C20.8228 22.0633 20.6305 21.8291 20.517 21.555C20.4035 21.2809 20.3738 20.9793 20.4317 20.6883C20.4895 20.3973 20.6324 20.1301 20.8422 19.9203C21.052 19.7105 21.3192 19.5677 21.6102 19.5098C21.9012 19.4519 22.2028 19.4816 22.4769 19.5951C22.7509 19.7087 22.9852 19.9009 23.15 20.1476C23.3149 20.3943 23.4028 20.6843 23.4028 20.981C23.4024 21.3786 23.2442 21.7599 22.963 22.0411C22.6818 22.3223 22.3005 22.4805 21.9028 22.481Z" fill="white"/>
<path d="M27.6676 15.2116C26.2423 13.7866 24.3396 12.9401 22.3269 12.8355C20.3141 12.7308 18.3339 13.3755 16.7685 14.645C15.2031 15.9145 14.1634 17.7188 13.8501 19.7098C13.5368 21.7008 13.9721 23.7373 15.072 25.4262L20.7395 34.1268C20.8657 34.3204 21.0381 34.4794 21.2412 34.5895C21.4444 34.6997 21.6718 34.7573 21.9029 34.7573C22.1339 34.7573 22.3613 34.6997 22.5645 34.5895C22.7676 34.4794 22.9401 34.3204 23.0662 34.1268L28.7339 25.4262C29.7545 23.8595 30.2055 21.9896 30.0114 20.1299C29.8172 18.2702 28.9898 16.5337 27.6676 15.2116ZM27.4771 24.6074L21.9029 33.1644L16.3286 24.6074C14.6224 21.9881 14.9884 18.4828 17.1988 16.2722C17.8165 15.6545 18.5499 15.1644 19.357 14.8301C20.1642 14.4958 21.0292 14.3237 21.9029 14.3237C22.7765 14.3237 23.6416 14.4958 24.4487 14.8301C25.2559 15.1644 25.9892 15.6545 26.607 16.2722C28.8174 18.4828 29.1833 21.9881 27.4771 24.6074Z" fill="white"/>
</svg>
