<svg width="45" height="45" viewBox="0 0 45 45" fill="none" xmlns="http://www.w3.org/2000/svg">
<circle cx="22.5" cy="22.5" r="22.5" fill="#FB2E86"/>
<path d="M14.5 21C14.5 16.8578 17.8578 13.5 22 13.5C26.1423 13.5 29.5 16.8578 29.5 21V25.5C29.5 26.2956 29.1839 27.0587 28.6213 27.6213C28.0587 28.1839 27.2956 28.5 26.5 28.5H25C24.6022 28.5 24.2206 28.342 23.9393 28.0607C23.658 27.7794 23.5 27.3978 23.5 27V22.5C23.5 22.1022 23.658 21.7206 23.9393 21.4393C24.2206 21.158 24.6022 21 25 21H28C28 19.4087 27.3679 17.8826 26.2426 16.7574C25.1174 15.6321 23.5913 15 22 15C20.4087 15 18.8826 15.6321 17.7574 16.7574C16.6321 17.8826 16 19.4087 16 21H19C19.3978 21 19.7794 21.158 20.0607 21.4393C20.342 21.7206 20.5 22.1022 20.5 22.5V27C20.5 27.3978 20.342 27.7794 20.0607 28.0607C19.7794 28.342 19.3978 28.5 19 28.5H16C16 29.2956 16.3161 30.0587 16.8787 30.6213C17.4413 31.1839 18.2044 31.5 19 31.5H19.8775C20.0544 30.9994 20.4026 30.5774 20.8606 30.3087C21.3186 30.04 21.8568 29.9419 22.3801 30.0316C22.9034 30.1214 23.3782 30.3933 23.7204 30.7992C24.0627 31.2052 24.2504 31.719 24.2504 32.25C24.2504 32.781 24.0627 33.2948 23.7204 33.7008C23.3782 34.1067 22.9034 34.3786 22.3801 34.4684C21.8568 34.5581 21.3186 34.46 20.8606 34.1913C20.4026 33.9226 20.0544 33.5006 19.8775 33H19C17.8065 33 16.6619 32.5259 15.818 31.682C14.9741 30.8381 14.5 29.6935 14.5 28.5V21Z" fill="white"/>
</svg>
